<svg width="118" height="14" viewBox="0 0 118 14" fill="none" xmlns="http://www.w3.org/2000/svg">
<path d="M1.688 3.032V6.76H5.752V7.96H1.688V11.8H6.232V13H0.232V1.832H6.232V3.032H1.688ZM12.7071 4.072C13.7738 4.072 14.6378 4.39733 15.2991 5.048C15.9605 5.688 16.2911 6.616 16.2911 7.832V13H14.8511V8.04C14.8511 7.16533 14.6325 6.49867 14.1951 6.04C13.7578 5.57067 13.1605 5.336 12.4031 5.336C11.6351 5.336 11.0218 5.576 10.5631 6.056C10.1151 6.536 9.89113 7.23467 9.89113 8.152V13H8.43513V4.232H9.89113V5.48C10.1791 5.032 10.5685 4.68533 11.0591 4.44C11.5605 4.19467 12.1098 4.072 12.7071 4.072ZM20.4455 5.432V10.6C20.4455 11.0267 20.5362 11.3307 20.7175 11.512C20.8988 11.6827 21.2135 11.768 21.6615 11.768H22.7335V13H21.4215C20.6108 13 20.0028 12.8133 19.5975 12.44C19.1922 12.0667 18.9895 11.4533 18.9895 10.6V5.432H17.8535V4.232H18.9895V2.024H20.4455V4.232H22.7335V5.432H20.4455ZM32.4976 8.28C32.4976 8.55733 32.4816 8.85067 32.4496 9.16H25.4416C25.495 10.024 25.7883 10.7013 26.3216 11.192C26.8656 11.672 27.5216 11.912 28.2896 11.912C28.919 11.912 29.4416 11.768 29.8576 11.48C30.2843 11.1813 30.583 10.7867 30.7536 10.296H32.3216C32.087 11.1387 31.6176 11.8267 30.9136 12.36C30.2096 12.8827 29.335 13.144 28.2896 13.144C27.4576 13.144 26.711 12.9573 26.0496 12.584C25.399 12.2107 24.887 11.6827 24.5136 11C24.1403 10.3067 23.9536 9.50667 23.9536 8.6C23.9536 7.69333 24.135 6.89867 24.4976 6.216C24.8603 5.53333 25.367 5.01067 26.0176 4.648C26.679 4.27467 27.4363 4.088 28.2896 4.088C29.1216 4.088 29.8576 4.26933 30.4976 4.632C31.1376 4.99467 31.6283 5.496 31.9696 6.136C32.3216 6.76533 32.4976 7.48 32.4976 8.28ZM30.9936 7.976C30.9936 7.42133 30.871 6.94667 30.6256 6.552C30.3803 6.14667 30.0443 5.84267 29.6176 5.64C29.2016 5.42667 28.7376 5.32 28.2256 5.32C27.4896 5.32 26.8603 5.55467 26.3376 6.024C25.8256 6.49333 25.5323 7.144 25.4576 7.976H30.9936ZM35.8755 5.656C36.1315 5.15467 36.4942 4.76533 36.9635 4.488C37.4435 4.21067 38.0248 4.072 38.7075 4.072V5.576H38.3235C36.6915 5.576 35.8755 6.46133 35.8755 8.232V13H34.4195V4.232H35.8755V5.656ZM52.4619 1.848L48.8299 8.792V13H47.3739V8.792L43.7259 1.848H45.3419L48.0939 7.496L50.8459 1.848H52.4619ZM57.8216 13.144C57.0003 13.144 56.2536 12.9573 55.5816 12.584C54.9203 12.2107 54.3976 11.6827 54.0136 11C53.6403 10.3067 53.4536 9.50667 53.4536 8.6C53.4536 7.704 53.6456 6.91467 54.0296 6.232C54.4243 5.53867 54.9576 5.01067 55.6296 4.648C56.3016 4.27467 57.0536 4.088 57.8856 4.088C58.7176 4.088 59.4696 4.27467 60.1416 4.648C60.8136 5.01067 61.3416 5.53333 61.7256 6.216C62.1203 6.89867 62.3176 7.69333 62.3176 8.6C62.3176 9.50667 62.115 10.3067 61.7096 11C61.315 11.6827 60.7763 12.2107 60.0936 12.584C59.411 12.9573 58.6536 13.144 57.8216 13.144ZM57.8216 11.864C58.3443 11.864 58.835 11.7413 59.2936 11.496C59.7523 11.2507 60.1203 10.8827 60.3976 10.392C60.6856 9.90133 60.8296 9.304 60.8296 8.6C60.8296 7.896 60.691 7.29867 60.4136 6.808C60.1363 6.31733 59.7736 5.95467 59.3256 5.72C58.8776 5.47467 58.3923 5.352 57.8696 5.352C57.3363 5.352 56.8456 5.47467 56.3976 5.72C55.9603 5.95467 55.6083 6.31733 55.3416 6.808C55.075 7.29867 54.9416 7.896 54.9416 8.6C54.9416 9.31467 55.0696 9.91733 55.3256 10.408C55.5923 10.8987 55.9443 11.2667 56.3816 11.512C56.819 11.7467 57.299 11.864 57.8216 11.864ZM72.008 4.232V13H70.552V11.704C70.2747 12.152 69.8853 12.504 69.384 12.76C68.8933 13.0053 68.3493 13.128 67.752 13.128C67.0693 13.128 66.456 12.9893 65.912 12.712C65.368 12.424 64.936 11.9973 64.616 11.432C64.3067 10.8667 64.152 10.1787 64.152 9.368V4.232H65.592V9.176C65.592 10.04 65.8107 10.7067 66.248 11.176C66.6853 11.6347 67.2827 11.864 68.04 11.864C68.8187 11.864 69.432 11.624 69.88 11.144C70.328 10.664 70.552 9.96533 70.552 9.048V4.232H72.008ZM75.9224 5.656C76.1784 5.15467 76.541 4.76533 77.0104 4.488C77.4904 4.21067 78.0717 4.072 78.7544 4.072V5.576H78.3704C76.7384 5.576 75.9224 6.46133 75.9224 8.232V13H74.4664V4.232H75.9224V5.656ZM95.2448 4.072C95.9274 4.072 96.5354 4.216 97.0688 4.504C97.6021 4.78133 98.0234 5.20267 98.3328 5.768C98.6421 6.33333 98.7968 7.02133 98.7968 7.832V13H97.3568V8.04C97.3568 7.16533 97.1381 6.49867 96.7008 6.04C96.2741 5.57067 95.6928 5.336 94.9568 5.336C94.1994 5.336 93.5968 5.58133 93.1488 6.072C92.7008 6.552 92.4768 7.25067 92.4768 8.168V13H91.0368V8.04C91.0368 7.16533 90.8181 6.49867 90.3808 6.04C89.9541 5.57067 89.3728 5.336 88.6368 5.336C87.8794 5.336 87.2768 5.58133 86.8288 6.072C86.3808 6.552 86.1568 7.25067 86.1568 8.168V13H84.7008V4.232H86.1568V5.496C86.4448 5.03733 86.8288 4.68533 87.3088 4.44C87.7994 4.19467 88.3381 4.072 88.9248 4.072C89.6608 4.072 90.3114 4.23733 90.8768 4.568C91.4421 4.89867 91.8634 5.384 92.1408 6.024C92.3861 5.40533 92.7914 4.92533 93.3568 4.584C93.9221 4.24267 94.5514 4.072 95.2448 4.072ZM100.641 8.584C100.641 7.688 100.822 6.904 101.185 6.232C101.548 5.54933 102.044 5.02133 102.673 4.648C103.313 4.27467 104.022 4.088 104.801 4.088C105.569 4.088 106.236 4.25333 106.801 4.584C107.366 4.91467 107.788 5.33067 108.065 5.832V4.232H109.537V13H108.065V11.368C107.777 11.88 107.345 12.3067 106.769 12.648C106.204 12.9787 105.542 13.144 104.785 13.144C104.006 13.144 103.302 12.952 102.673 12.568C102.044 12.184 101.548 11.6453 101.185 10.952C100.822 10.2587 100.641 9.46933 100.641 8.584ZM108.065 8.6C108.065 7.93867 107.932 7.36267 107.665 6.872C107.398 6.38133 107.036 6.008 106.577 5.752C106.129 5.48533 105.633 5.352 105.089 5.352C104.545 5.352 104.049 5.48 103.601 5.736C103.153 5.992 102.796 6.36533 102.529 6.856C102.262 7.34667 102.129 7.92267 102.129 8.584C102.129 9.256 102.262 9.84267 102.529 10.344C102.796 10.8347 103.153 11.2133 103.601 11.48C104.049 11.736 104.545 11.864 105.089 11.864C105.633 11.864 106.129 11.736 106.577 11.48C107.036 11.2133 107.398 10.8347 107.665 10.344C107.932 9.84267 108.065 9.26133 108.065 8.6ZM112.75 2.808C112.472 2.808 112.238 2.712 112.046 2.52C111.854 2.328 111.758 2.09333 111.758 1.816C111.758 1.53867 111.854 1.304 112.046 1.112C112.238 0.919999 112.472 0.823999 112.75 0.823999C113.016 0.823999 113.24 0.919999 113.422 1.112C113.614 1.304 113.71 1.53867 113.71 1.816C113.71 2.09333 113.614 2.328 113.422 2.52C113.24 2.712 113.016 2.808 112.75 2.808ZM113.454 4.232V13H111.998V4.232H113.454ZM117.391 1.16V13H115.935V1.16H117.391Z" fill="#C4C4C4"/>
</svg>
