<svg width="300" height="300" viewBox="0 0 300 300" fill="none" xmlns="http://www.w3.org/2000/svg">
<g clip-path="url(#clip0_22_144)">
<path d="M108.833 284.193H51.8481V153.5C51.8481 146.29 57.6934 140.444 64.9046 140.444H95.7776C102.988 140.444 108.834 146.289 108.834 153.5V284.193H108.833Z" fill="url(#paint0_linear_22_144)"/>
<path d="M165.818 284.193H108.833V113.706C108.833 106.495 114.678 100.649 121.889 100.649H152.762C159.973 100.649 165.819 106.495 165.819 113.706V284.193H165.818Z" fill="url(#paint1_linear_22_144)"/>
<path d="M222.804 284.193H165.819V73.0125C165.819 65.8019 171.664 59.9561 178.875 59.9561H209.748C216.959 59.9561 222.805 65.8013 222.805 73.0125V284.193H222.804Z" fill="url(#paint2_linear_22_144)"/>
<path d="M279.789 284.193H222.804V175.613C222.804 168.402 228.649 162.556 235.86 162.556H266.733C273.944 162.556 279.79 168.401 279.79 175.613V284.193H279.789Z" fill="url(#paint3_linear_22_144)"/>
<path d="M165.819 284.193V210.485L108.833 153.5V284.193H165.819Z" fill="url(#paint4_linear_22_144)"/>
<path d="M222.804 284.193V170.691L165.819 113.706V284.193H222.804Z" fill="url(#paint5_linear_22_144)"/>
<path d="M223.221 172.393L223.516 171.389C223.404 171.717 223.307 172.053 223.221 172.393Z" fill="url(#paint6_linear_22_144)"/>
<path d="M222.932 173.878C222.857 174.447 222.804 175.023 222.804 175.612V284.193H279.79V230.735L222.932 173.878Z" fill="url(#paint7_linear_22_144)"/>
<path d="M15.8071 300C7.07706 300 0 292.923 0 284.193V15.8071C0 7.07706 7.07706 0 15.8071 0C24.5371 0 31.6141 7.07706 31.6141 15.8071V284.193C31.6141 292.923 24.5371 300 15.8071 300Z" fill="url(#paint8_linear_22_144)"/>
<path d="M0 284.193C0 275.463 7.07706 268.386 15.8071 268.386H284.193C292.923 268.386 300 275.463 300 284.193C300 292.923 292.923 300 284.193 300H15.8071C7.07706 300 0 292.923 0 284.193H0Z" fill="url(#paint9_linear_22_144)"/>
<path d="M78.8888 119.588C77.1817 119.588 75.4888 118.849 74.3258 117.422C72.2735 114.904 72.6505 111.198 75.1694 109.146L190.448 15.1888C192.892 13.1964 196.477 13.4858 198.569 15.8494L257.731 82.6658C259.884 85.0982 259.658 88.8158 257.226 90.9694C254.794 93.1223 251.076 92.897 248.922 90.4646L193.504 27.8764L82.6017 118.266C81.5099 119.155 80.1952 119.588 78.8888 119.588Z" fill="url(#paint10_linear_22_144)"/>
<path d="M81.2764 127.818C89.5578 127.818 96.2712 121.104 96.2712 112.823C96.2712 104.541 89.5578 97.8281 81.2764 97.8281C72.9951 97.8281 66.2817 104.541 66.2817 112.823C66.2817 121.104 72.9951 127.818 81.2764 127.818Z" fill="url(#paint11_linear_22_144)"/>
<path d="M88.4426 99.6484C89.6032 101.778 90.2632 104.219 90.2632 106.815C90.2632 115.096 83.5497 121.81 75.2685 121.81C72.6726 121.81 70.2315 121.15 68.1021 119.989C70.6444 124.653 75.5903 127.817 81.2762 127.817C89.5574 127.817 96.2709 121.104 96.2709 112.823C96.2709 107.137 93.1062 102.191 88.4426 99.6484Z" fill="url(#paint12_linear_22_144)"/>
<path d="M139.559 79.6574C147.84 79.6574 154.553 72.944 154.553 64.6627C154.553 56.3813 147.84 49.668 139.559 49.668C131.277 49.668 124.564 56.3813 124.564 64.6627C124.564 72.944 131.277 79.6574 139.559 79.6574Z" fill="url(#paint13_linear_22_144)"/>
<path d="M146.725 51.4883C147.885 53.6177 148.545 56.0589 148.545 58.6548C148.545 66.9359 141.832 73.6495 133.551 73.6495C130.955 73.6495 128.514 72.9895 126.384 71.8289C128.927 76.4924 133.873 79.6571 139.558 79.6571C147.84 79.6571 154.553 72.9436 154.553 64.6624C154.554 58.9771 151.389 54.0306 146.725 51.4883Z" fill="url(#paint14_linear_22_144)"/>
<path d="M251.297 100.65C259.579 100.65 266.292 93.9362 266.292 85.6549C266.292 77.3735 259.579 70.6602 251.297 70.6602C243.016 70.6602 236.303 77.3735 236.303 85.6549C236.303 93.9362 243.016 100.65 251.297 100.65Z" fill="url(#paint15_linear_22_144)"/>
<path d="M258.464 72.4805C259.624 74.6099 260.284 77.0511 260.284 79.6469C260.284 87.9281 253.571 94.6417 245.29 94.6417C242.694 94.6417 240.252 93.9817 238.123 92.8211C240.665 97.4846 245.611 100.649 251.297 100.649C259.578 100.649 266.292 93.9358 266.292 85.6546C266.292 79.9693 263.127 75.0228 258.464 72.4805Z" fill="url(#paint16_linear_22_144)"/>
<path d="M194.312 34.8913C202.593 34.8913 209.306 28.1779 209.306 19.8966C209.306 11.6152 202.593 4.90186 194.312 4.90186C186.03 4.90186 179.317 11.6152 179.317 19.8966C179.317 28.1779 186.03 34.8913 194.312 34.8913Z" fill="url(#paint17_linear_22_144)"/>
<path d="M201.478 6.72217C202.638 8.85158 203.298 11.2928 203.298 13.8886C203.298 22.1698 196.585 28.8833 188.304 28.8833C185.708 28.8833 183.267 28.2233 181.137 27.0628C183.68 31.7263 188.625 34.891 194.311 34.891C202.592 34.891 209.306 28.1775 209.306 19.8963C209.306 14.211 206.141 9.26452 201.478 6.72217Z" fill="url(#paint18_linear_22_144)"/>
</g>
<defs>
<linearGradient id="paint0_linear_22_144" x1="60.0276" y1="212.319" x2="111.245" y2="212.319" gradientUnits="userSpaceOnUse">
<stop stop-color="#CDEC7A"/>
<stop offset="0.34" stop-color="#C1EA76"/>
<stop offset="0.9563" stop-color="#A1E66B"/>
<stop offset="1" stop-color="#9EE66A"/>
</linearGradient>
<linearGradient id="paint1_linear_22_144" x1="122.101" y1="192.421" x2="173.171" y2="192.421" gradientUnits="userSpaceOnUse">
<stop stop-color="#FFD945"/>
<stop offset="0.3043" stop-color="#FFCD3E"/>
<stop offset="0.8558" stop-color="#FFAD2B"/>
<stop offset="1" stop-color="#FFA325"/>
</linearGradient>
<linearGradient id="paint2_linear_22_144" x1="168.156" y1="172.075" x2="231.871" y2="172.075" gradientUnits="userSpaceOnUse">
<stop stop-color="#FF7044"/>
<stop offset="0.2346" stop-color="#FE653C"/>
<stop offset="0.6509" stop-color="#FB4628"/>
<stop offset="1" stop-color="#F82814"/>
</linearGradient>
<linearGradient id="paint3_linear_22_144" x1="232.231" y1="223.375" x2="281.453" y2="223.375" gradientUnits="userSpaceOnUse">
<stop stop-color="#CDEC7A"/>
<stop offset="0.34" stop-color="#C1EA76"/>
<stop offset="0.9563" stop-color="#A1E66B"/>
<stop offset="1" stop-color="#9EE66A"/>
</linearGradient>
<linearGradient id="paint4_linear_22_144" x1="172.669" y1="252.924" x2="47.0129" y2="185.845" gradientUnits="userSpaceOnUse">
<stop stop-color="#E87264" stop-opacity="0"/>
<stop offset="0.6519" stop-color="#F67150" stop-opacity="0.652"/>
<stop offset="1" stop-color="#FF7044"/>
</linearGradient>
<linearGradient id="paint5_linear_22_144" x1="231.962" y1="232.162" x2="120.949" y2="176.42" gradientUnits="userSpaceOnUse">
<stop stop-color="#F82814" stop-opacity="0"/>
<stop offset="0.1249" stop-color="#ED2819" stop-opacity="0.125"/>
<stop offset="0.4524" stop-color="#D42724" stop-opacity="0.452"/>
<stop offset="0.7531" stop-color="#C5272B" stop-opacity="0.753"/>
<stop offset="1" stop-color="#C0272D"/>
</linearGradient>
<linearGradient id="paint6_linear_22_144" x1="223.27" y1="171.891" x2="223.525" y2="171.891" gradientUnits="userSpaceOnUse">
<stop stop-color="#CDEC7A"/>
<stop offset="0.34" stop-color="#C1EA76"/>
<stop offset="0.9563" stop-color="#A1E66B"/>
<stop offset="1" stop-color="#9EE66A"/>
</linearGradient>
<linearGradient id="paint7_linear_22_144" x1="274.58" y1="253.556" x2="173.961" y2="205.844" gradientUnits="userSpaceOnUse">
<stop stop-color="#9EE66A" stop-opacity="0"/>
<stop offset="0.1524" stop-color="#93E267" stop-opacity="0.152"/>
<stop offset="0.4172" stop-color="#77D660" stop-opacity="0.417"/>
<stop offset="0.7603" stop-color="#49C254" stop-opacity="0.76"/>
<stop offset="1" stop-color="#25B34B"/>
</linearGradient>
<linearGradient id="paint8_linear_22_144" x1="4.25118" y1="150" x2="58.0688" y2="150" gradientUnits="userSpaceOnUse">
<stop stop-color="#F0DDFC"/>
<stop offset="0.4474" stop-color="#C1AEC7"/>
<stop offset="1" stop-color="#8A7889"/>
</linearGradient>
<linearGradient id="paint9_linear_22_144" x1="150" y1="272.637" x2="150" y2="326.454" gradientUnits="userSpaceOnUse">
<stop stop-color="#F0DDFC"/>
<stop offset="0.4474" stop-color="#C1AEC7"/>
<stop offset="1" stop-color="#8A7889"/>
</linearGradient>
<linearGradient id="paint10_linear_22_144" x1="244.881" y1="118.108" x2="102.337" y2="50.5164" gradientUnits="userSpaceOnUse">
<stop stop-color="#FF7044"/>
<stop offset="0.2346" stop-color="#FE653C"/>
<stop offset="0.6509" stop-color="#FB4628"/>
<stop offset="1" stop-color="#F82814"/>
</linearGradient>
<linearGradient id="paint11_linear_22_144" x1="67.6923" y1="99.2387" x2="82.5588" y2="114.105" gradientUnits="userSpaceOnUse">
<stop stop-color="#18CFFC"/>
<stop offset="1" stop-color="#4A98F7"/>
</linearGradient>
<linearGradient id="paint12_linear_22_144" x1="78.1568" y1="120.888" x2="111.266" y2="95.309" gradientUnits="userSpaceOnUse">
<stop stop-color="#0469BC" stop-opacity="0"/>
<stop offset="1" stop-color="#0469BC"/>
</linearGradient>
<linearGradient id="paint13_linear_22_144" x1="125.975" y1="51.0791" x2="140.84" y2="65.945" gradientUnits="userSpaceOnUse">
<stop stop-color="#18CFFC"/>
<stop offset="1" stop-color="#4A98F7"/>
</linearGradient>
<linearGradient id="paint14_linear_22_144" x1="136.44" y1="72.7289" x2="169.548" y2="47.1495" gradientUnits="userSpaceOnUse">
<stop stop-color="#0469BC" stop-opacity="0"/>
<stop offset="1" stop-color="#0469BC"/>
</linearGradient>
<linearGradient id="paint15_linear_22_144" x1="237.713" y1="72.0707" x2="252.58" y2="86.9372" gradientUnits="userSpaceOnUse">
<stop stop-color="#18CFFC"/>
<stop offset="1" stop-color="#4A98F7"/>
</linearGradient>
<linearGradient id="paint16_linear_22_144" x1="248.178" y1="93.7205" x2="281.287" y2="68.1411" gradientUnits="userSpaceOnUse">
<stop stop-color="#0469BC" stop-opacity="0"/>
<stop offset="1" stop-color="#0469BC"/>
</linearGradient>
<linearGradient id="paint17_linear_22_144" x1="180.727" y1="6.31244" x2="195.594" y2="21.1789" gradientUnits="userSpaceOnUse">
<stop stop-color="#18CFFC"/>
<stop offset="1" stop-color="#4A98F7"/>
</linearGradient>
<linearGradient id="paint18_linear_22_144" x1="191.192" y1="27.9622" x2="224.301" y2="2.38275" gradientUnits="userSpaceOnUse">
<stop stop-color="#0469BC" stop-opacity="0"/>
<stop offset="1" stop-color="#0469BC"/>
</linearGradient>
<clipPath id="clip0_22_144">
<rect width="300" height="300" fill="white"/>
</clipPath>
</defs>
</svg>
