<svg width="100" height="14" viewBox="0 0 100 14" fill="none" xmlns="http://www.w3.org/2000/svg">
<path d="M4.768 13.112C4.032 13.112 3.37067 12.984 2.784 12.728C2.208 12.4613 1.75467 12.0987 1.424 11.64C1.09333 11.1707 0.922667 10.632 0.912 10.024H2.464C2.51733 10.5467 2.73067 10.9893 3.104 11.352C3.488 11.704 4.04267 11.88 4.768 11.88C5.46133 11.88 6.00533 11.7093 6.4 11.368C6.80533 11.016 7.008 10.568 7.008 10.024C7.008 9.59733 6.89067 9.25067 6.656 8.984C6.42133 8.71733 6.128 8.51467 5.776 8.376C5.424 8.23733 4.94933 8.088 4.352 7.928C3.616 7.736 3.024 7.544 2.576 7.352C2.13867 7.16 1.76 6.86133 1.44 6.456C1.13067 6.04 0.976 5.48533 0.976 4.792C0.976 4.184 1.13067 3.64533 1.44 3.176C1.74933 2.70667 2.18133 2.344 2.736 2.088C3.30133 1.832 3.94667 1.704 4.672 1.704C5.71733 1.704 6.57067 1.96533 7.232 2.488C7.904 3.01067 8.28267 3.704 8.368 4.568H6.768C6.71467 4.14133 6.49067 3.768 6.096 3.448C5.70133 3.11733 5.17867 2.952 4.528 2.952C3.92 2.952 3.424 3.112 3.04 3.432C2.656 3.74133 2.464 4.17867 2.464 4.744C2.464 5.14933 2.576 5.48 2.8 5.736C3.03467 5.992 3.31733 6.18933 3.648 6.328C3.98933 6.456 4.464 6.60533 5.072 6.776C5.808 6.97867 6.4 7.18133 6.848 7.384C7.296 7.576 7.68 7.88 8 8.296C8.32 8.70133 8.48 9.256 8.48 9.96C8.48 10.504 8.336 11.016 8.048 11.496C7.76 11.976 7.33333 12.3653 6.768 12.664C6.20267 12.9627 5.536 13.112 4.768 13.112ZM18.3986 4.232V13H16.9426V11.704C16.6653 12.152 16.276 12.504 15.7746 12.76C15.284 13.0053 14.74 13.128 14.1426 13.128C13.46 13.128 12.8466 12.9893 12.3026 12.712C11.7586 12.424 11.3266 11.9973 11.0066 11.432C10.6973 10.8667 10.5426 10.1787 10.5426 9.368V4.232H11.9826V9.176C11.9826 10.04 12.2013 10.7067 12.6386 11.176C13.076 11.6347 13.6733 11.864 14.4306 11.864C15.2093 11.864 15.8226 11.624 16.2706 11.144C16.7186 10.664 16.9426 9.96533 16.9426 9.048V4.232H18.3986ZM22.313 5.864C22.6117 5.34133 23.049 4.91467 23.625 4.584C24.201 4.25333 24.857 4.088 25.593 4.088C26.3823 4.088 27.0917 4.27467 27.721 4.648C28.3503 5.02133 28.8463 5.54933 29.209 6.232C29.5717 6.904 29.753 7.688 29.753 8.584C29.753 9.46933 29.5717 10.2587 29.209 10.952C28.8463 11.6453 28.345 12.184 27.705 12.568C27.0757 12.952 26.3717 13.144 25.593 13.144C24.8357 13.144 24.169 12.9787 23.593 12.648C23.0277 12.3173 22.601 11.896 22.313 11.384V13H20.857V1.16H22.313V5.864ZM28.265 8.584C28.265 7.92267 28.1317 7.34667 27.865 6.856C27.5983 6.36533 27.2357 5.992 26.777 5.736C26.329 5.48 25.833 5.352 25.289 5.352C24.7557 5.352 24.2597 5.48533 23.801 5.752C23.353 6.008 22.9903 6.38667 22.713 6.888C22.4463 7.37867 22.313 7.94933 22.313 8.6C22.313 9.26133 22.4463 9.84267 22.713 10.344C22.9903 10.8347 23.353 11.2133 23.801 11.48C24.2597 11.736 24.7557 11.864 25.289 11.864C25.833 11.864 26.329 11.736 26.777 11.48C27.2357 11.2133 27.5983 10.8347 27.865 10.344C28.1317 9.84267 28.265 9.256 28.265 8.584ZM31.1255 8.6C31.1255 7.69333 31.3068 6.904 31.6695 6.232C32.0322 5.54933 32.5335 5.02133 33.1735 4.648C33.8242 4.27467 34.5655 4.088 35.3975 4.088C36.4748 4.088 37.3602 4.34933 38.0535 4.872C38.7575 5.39467 39.2215 6.12 39.4455 7.048H37.8775C37.7282 6.51467 37.4348 6.09333 36.9975 5.784C36.5708 5.47467 36.0375 5.32 35.3975 5.32C34.5655 5.32 33.8935 5.608 33.3815 6.184C32.8695 6.74933 32.6135 7.55467 32.6135 8.6C32.6135 9.656 32.8695 10.472 33.3815 11.048C33.8935 11.624 34.5655 11.912 35.3975 11.912C36.0375 11.912 36.5708 11.7627 36.9975 11.464C37.4242 11.1653 37.7175 10.7387 37.8775 10.184H39.4455C39.2108 11.08 38.7415 11.8 38.0375 12.344C37.3335 12.8773 36.4535 13.144 35.3975 13.144C34.5655 13.144 33.8242 12.9573 33.1735 12.584C32.5335 12.2107 32.0322 11.6827 31.6695 11C31.3068 10.3173 31.1255 9.51733 31.1255 8.6ZM42.8443 5.656C43.1003 5.15467 43.4629 4.76533 43.9323 4.488C44.4123 4.21067 44.9936 4.072 45.6763 4.072V5.576H45.2923C43.6603 5.576 42.8443 6.46133 42.8443 8.232V13H41.3883V4.232H42.8443V5.656ZM48.109 2.808C47.8317 2.808 47.597 2.712 47.405 2.52C47.213 2.328 47.117 2.09333 47.117 1.816C47.117 1.53867 47.213 1.304 47.405 1.112C47.597 0.919999 47.8317 0.823999 48.109 0.823999C48.3757 0.823999 48.5997 0.919999 48.781 1.112C48.973 1.304 49.069 1.53867 49.069 1.816C49.069 2.09333 48.973 2.328 48.781 2.52C48.5997 2.712 48.3757 2.808 48.109 2.808ZM48.813 4.232V13H47.357V4.232H48.813ZM52.7505 5.864C53.0492 5.34133 53.4865 4.91467 54.0625 4.584C54.6385 4.25333 55.2945 4.088 56.0305 4.088C56.8198 4.088 57.5292 4.27467 58.1585 4.648C58.7878 5.02133 59.2838 5.54933 59.6465 6.232C60.0092 6.904 60.1905 7.688 60.1905 8.584C60.1905 9.46933 60.0092 10.2587 59.6465 10.952C59.2838 11.6453 58.7825 12.184 58.1425 12.568C57.5132 12.952 56.8092 13.144 56.0305 13.144C55.2732 13.144 54.6065 12.9787 54.0305 12.648C53.4652 12.3173 53.0385 11.896 52.7505 11.384V13H51.2945V1.16H52.7505V5.864ZM58.7025 8.584C58.7025 7.92267 58.5692 7.34667 58.3025 6.856C58.0358 6.36533 57.6732 5.992 57.2145 5.736C56.7665 5.48 56.2705 5.352 55.7265 5.352C55.1932 5.352 54.6972 5.48533 54.2385 5.752C53.7905 6.008 53.4278 6.38667 53.1505 6.888C52.8838 7.37867 52.7505 7.94933 52.7505 8.6C52.7505 9.26133 52.8838 9.84267 53.1505 10.344C53.4278 10.8347 53.7905 11.2133 54.2385 11.48C54.6972 11.736 55.1932 11.864 55.7265 11.864C56.2705 11.864 56.7665 11.736 57.2145 11.48C57.6732 11.2133 58.0358 10.8347 58.3025 10.344C58.5692 9.84267 58.7025 9.256 58.7025 8.584ZM75.1406 13H73.6846L67.8286 4.12V13H66.3726V1.832H67.8286L73.6846 10.696V1.832H75.1406V13ZM81.4466 13.144C80.6253 13.144 79.8786 12.9573 79.2066 12.584C78.5453 12.2107 78.0226 11.6827 77.6386 11C77.2653 10.3067 77.0786 9.50667 77.0786 8.6C77.0786 7.704 77.2706 6.91467 77.6546 6.232C78.0493 5.53867 78.5826 5.01067 79.2546 4.648C79.9266 4.27467 80.6786 4.088 81.5106 4.088C82.3426 4.088 83.0946 4.27467 83.7666 4.648C84.4386 5.01067 84.9666 5.53333 85.3506 6.216C85.7453 6.89867 85.9426 7.69333 85.9426 8.6C85.9426 9.50667 85.74 10.3067 85.3346 11C84.94 11.6827 84.4013 12.2107 83.7186 12.584C83.036 12.9573 82.2786 13.144 81.4466 13.144ZM81.4466 11.864C81.9693 11.864 82.46 11.7413 82.9186 11.496C83.3773 11.2507 83.7453 10.8827 84.0226 10.392C84.3106 9.90133 84.4546 9.304 84.4546 8.6C84.4546 7.896 84.316 7.29867 84.0386 6.808C83.7613 6.31733 83.3986 5.95467 82.9506 5.72C82.5026 5.47467 82.0173 5.352 81.4946 5.352C80.9613 5.352 80.4706 5.47467 80.0226 5.72C79.5853 5.95467 79.2333 6.31733 78.9666 6.808C78.7 7.29867 78.5666 7.896 78.5666 8.6C78.5666 9.31467 78.6946 9.91733 78.9506 10.408C79.2173 10.8987 79.5693 11.2667 80.0066 11.512C80.444 11.7467 80.924 11.864 81.4466 11.864ZM99.537 4.232L96.801 13H95.297L93.185 6.04L91.073 13H89.569L86.817 4.232H88.305L90.321 11.592L92.497 4.232H93.985L96.113 11.608L98.097 4.232H99.537Z" fill="#282828"/>
</svg>
